# xmcd
#
# Track frame offsets: 
#        150
#        20476
#        38142
#        56643
#        72211
#        82953
#        97849
#        122118
#        139906
#        158030
#
# Disc length: 2477 seconds
#
# Revision: 0
# Processed by: cddbd v1.5.2PL0 Copyright (c) Steve Scherf et al.
# Submitted via: ExactAudioCopyFreeDBPlugin 1.0
#
DISCID=7c09ab0a
DTITLE=平原綾香 - Winter Songbook
DYEAR=2014
DGENRE=JPop
TTITLE0=Auld Lang Syne ~ 蛍の光 
TTITLE1=アルジャーノンに花束を ~ Song of Bernadette
TTITLE2=Happy Xmas (War Is Over) 
TTITLE3=HAPPY
TTITLE4=私のお気に入り ~ My Favorite Things 
TTITLE5=Smile ~ 一緒に顔晴る君へ 
TTITLE6=My first love 
TTITLE7=青春の輝き ~ I Need To Be In Love 
TTITLE8=愛は花、君はその種子 ~ The Rose 
TTITLE9=Love Never Dies ~ 愛は死なず 
EXTD=
EXTT0=
EXTT1=
EXTT2=
EXTT3=
EXTT4=
EXTT5=
EXTT6=
EXTT7=
EXTT8=
EXTT9=
PLAYORDER=
